<mxfile host="app.diagrams.net" modified="2023-12-12T14:03:18.796Z" agent="Mozilla/5.0 (Windows NT 10.0; Win64; x64) AppleWebKit/537.36 (KHTML, like Gecko) Chrome/120.0.0.0 Safari/537.36" etag="1ZSjAV_InCivpnuN3SSi" version="22.1.7" type="device" pages="6">
  <diagram name="high-level-overview" id="-_sxWeP688rOmU0XGYvb">
    <mxGraphModel dx="1050" dy="574" grid="1" gridSize="10" guides="1" tooltips="1" connect="1" arrows="1" fold="1" page="1" pageScale="1" pageWidth="827" pageHeight="1169" math="0" shadow="0">
      <root>
        <mxCell id="0" />
        <mxCell id="1" parent="0" />
        <mxCell id="ZYfdXX0hbBwzLjQwSleB-4" value="User" style="sketch=0;pointerEvents=1;shadow=0;dashed=0;html=1;strokeColor=none;labelPosition=center;verticalLabelPosition=bottom;verticalAlign=top;align=center;fillColor=#505050;shape=mxgraph.mscae.intune.account_portal;fontSize=14;" parent="1" vertex="1">
          <mxGeometry x="132" y="199" width="35.826699999999995" height="40" as="geometry" />
        </mxCell>
        <mxCell id="ZYfdXX0hbBwzLjQwSleB-5" value="Web Browser" style="sketch=0;pointerEvents=1;shadow=0;dashed=0;html=1;strokeColor=none;labelPosition=center;verticalLabelPosition=bottom;verticalAlign=top;align=center;fillColor=#505050;shape=mxgraph.mscae.intune.device_group;fontSize=14;" parent="1" vertex="1">
          <mxGeometry x="255" y="200" width="50" height="50" as="geometry" />
        </mxCell>
        <mxCell id="ZYfdXX0hbBwzLjQwSleB-34" style="rounded=0;orthogonalLoop=1;jettySize=auto;html=1;endArrow=classic;endFill=1;dashed=1;fontSize=14;startArrow=classic;startFill=1;" parent="1" edge="1">
          <mxGeometry relative="1" as="geometry">
            <mxPoint x="568" y="224.55" as="sourcePoint" />
            <mxPoint x="678" y="224.55" as="targetPoint" />
          </mxGeometry>
        </mxCell>
        <mxCell id="ZYfdXX0hbBwzLjQwSleB-42" style="rounded=0;orthogonalLoop=1;jettySize=auto;html=1;" parent="1" target="ZYfdXX0hbBwzLjQwSleB-14" edge="1">
          <mxGeometry relative="1" as="geometry">
            <mxPoint x="520" y="280" as="sourcePoint" />
          </mxGeometry>
        </mxCell>
        <mxCell id="ZYfdXX0hbBwzLjQwSleB-8" value="CKB Server" style="sketch=0;aspect=fixed;pointerEvents=1;shadow=0;dashed=0;html=1;strokeColor=none;labelPosition=center;verticalLabelPosition=bottom;verticalAlign=top;align=center;fillColor=#515151;shape=mxgraph.mscae.enterprise.server_generic;fontSize=14;" parent="1" vertex="1">
          <mxGeometry x="525" y="200" width="24" height="50" as="geometry" />
        </mxCell>
        <mxCell id="ZYfdXX0hbBwzLjQwSleB-9" value="Database&amp;nbsp;&lt;br&gt;Server" style="sketch=0;aspect=fixed;pointerEvents=1;shadow=0;dashed=0;html=1;strokeColor=none;labelPosition=center;verticalLabelPosition=bottom;verticalAlign=top;align=center;fillColor=#515151;shape=mxgraph.mscae.enterprise.database_server;fontSize=14;" parent="1" vertex="1">
          <mxGeometry x="640" y="90" width="38" height="50" as="geometry" />
        </mxCell>
        <mxCell id="ZYfdXX0hbBwzLjQwSleB-10" value="Web Server" style="sketch=0;aspect=fixed;pointerEvents=1;shadow=0;dashed=0;html=1;strokeColor=none;labelPosition=center;verticalLabelPosition=bottom;verticalAlign=top;align=center;fillColor=#515151;shape=mxgraph.mscae.enterprise.web_server;fontSize=14;" parent="1" vertex="1">
          <mxGeometry x="395" y="200" width="38" height="50" as="geometry" />
        </mxCell>
        <mxCell id="ZYfdXX0hbBwzLjQwSleB-17" value="" style="group;fontSize=14;" parent="1" vertex="1" connectable="0">
          <mxGeometry x="395" y="321.5" width="57.95269999999999" height="59" as="geometry" />
        </mxCell>
        <mxCell id="ZYfdXX0hbBwzLjQwSleB-14" value="Mail Server" style="sketch=0;pointerEvents=1;shadow=0;dashed=0;html=1;strokeColor=none;fillColor=#505050;labelPosition=center;verticalLabelPosition=bottom;verticalAlign=top;outlineConnect=0;align=center;shape=mxgraph.office.servers.exchange_mailbox_server;fontSize=14;" parent="ZYfdXX0hbBwzLjQwSleB-17" vertex="1">
          <mxGeometry width="57" height="59" as="geometry" />
        </mxCell>
        <mxCell id="ZYfdXX0hbBwzLjQwSleB-16" value="" style="sketch=0;pointerEvents=1;shadow=0;dashed=0;html=1;labelPosition=center;verticalLabelPosition=bottom;verticalAlign=top;outlineConnect=0;align=center;shape=mxgraph.office.exchange_mailbox_server;strokeColor=none;fontSize=14;" parent="ZYfdXX0hbBwzLjQwSleB-17" vertex="1">
          <mxGeometry x="30" width="27.952699999999997" height="25.984199999999998" as="geometry" />
        </mxCell>
        <mxCell id="ZYfdXX0hbBwzLjQwSleB-28" value="GitHub API" style="shape=image;html=1;verticalAlign=top;verticalLabelPosition=bottom;labelBackgroundColor=#ffffff;imageAspect=0;aspect=fixed;image=https://cdn1.iconfinder.com/data/icons/picons-social/57/github_rounded-128.png;fontSize=14;" parent="1" vertex="1">
          <mxGeometry x="700" y="199" width="40" height="40" as="geometry" />
        </mxCell>
        <mxCell id="ZYfdXX0hbBwzLjQwSleB-29" value="Static Analysis &lt;br style=&quot;font-size: 14px;&quot;&gt;Tool API" style="sketch=0;aspect=fixed;pointerEvents=1;shadow=0;dashed=0;html=1;strokeColor=none;labelPosition=center;verticalLabelPosition=bottom;verticalAlign=top;align=center;fillColor=#515151;shape=mxgraph.azure.script_file;fontSize=14;" parent="1" vertex="1">
          <mxGeometry x="650" y="340.5" width="37.6" height="40" as="geometry" />
        </mxCell>
        <mxCell id="ZYfdXX0hbBwzLjQwSleB-30" style="edgeStyle=orthogonalEdgeStyle;rounded=0;orthogonalLoop=1;jettySize=auto;html=1;endArrow=classic;endFill=1;fontSize=14;startArrow=classic;startFill=1;" parent="1" edge="1">
          <mxGeometry relative="1" as="geometry">
            <mxPoint x="320" y="225" as="sourcePoint" />
            <mxPoint x="380" y="225" as="targetPoint" />
          </mxGeometry>
        </mxCell>
        <mxCell id="ZYfdXX0hbBwzLjQwSleB-31" style="edgeStyle=orthogonalEdgeStyle;rounded=0;orthogonalLoop=1;jettySize=auto;html=1;endArrow=classic;endFill=1;fontSize=14;startArrow=classic;startFill=1;sourcePerimeterSpacing=0;" parent="1" edge="1">
          <mxGeometry relative="1" as="geometry">
            <mxPoint x="440" y="225" as="sourcePoint" />
            <mxPoint x="510" y="225" as="targetPoint" />
          </mxGeometry>
        </mxCell>
        <mxCell id="ZYfdXX0hbBwzLjQwSleB-33" style="rounded=0;orthogonalLoop=1;jettySize=auto;html=1;endArrow=classic;endFill=1;fontSize=14;startArrow=classic;startFill=1;" parent="1" edge="1">
          <mxGeometry relative="1" as="geometry">
            <mxPoint x="560" y="190" as="sourcePoint" />
            <mxPoint x="630" y="130" as="targetPoint" />
          </mxGeometry>
        </mxCell>
        <mxCell id="ZYfdXX0hbBwzLjQwSleB-35" style="rounded=0;orthogonalLoop=1;jettySize=auto;html=1;dashed=1;endArrow=classic;endFill=1;fontSize=14;startArrow=classic;startFill=1;" parent="1" edge="1">
          <mxGeometry relative="1" as="geometry">
            <mxPoint x="570" y="280" as="sourcePoint" />
            <mxPoint x="640" y="340" as="targetPoint" />
          </mxGeometry>
        </mxCell>
        <mxCell id="ZYfdXX0hbBwzLjQwSleB-38" style="rounded=0;orthogonalLoop=1;jettySize=auto;html=1;endArrow=classic;endFill=1;fontSize=14;startArrow=classic;startFill=1;" parent="1" edge="1">
          <mxGeometry relative="1" as="geometry">
            <mxPoint x="180" y="225" as="sourcePoint" />
            <mxPoint x="240" y="225" as="targetPoint" />
          </mxGeometry>
        </mxCell>
        <mxCell id="ZYfdXX0hbBwzLjQwSleB-43" style="rounded=0;orthogonalLoop=1;jettySize=auto;html=1;" parent="1" edge="1">
          <mxGeometry relative="1" as="geometry">
            <mxPoint x="380" y="340" as="sourcePoint" />
            <mxPoint x="290" y="280" as="targetPoint" />
          </mxGeometry>
        </mxCell>
      </root>
    </mxGraphModel>
  </diagram>
  <diagram id="Zxok3MyAq7TfOQkUc8tD" name="hl-component">
    <mxGraphModel dx="1000" dy="547" grid="1" gridSize="10" guides="1" tooltips="1" connect="1" arrows="1" fold="1" page="1" pageScale="1" pageWidth="827" pageHeight="1169" math="0" shadow="0">
      <root>
        <mxCell id="0" />
        <mxCell id="1" parent="0" />
        <mxCell id="v0lIDTa_m5VfAxgYYqqX-1" value="CKB server" style="fontStyle=1;align=center;verticalAlign=top;childLayout=stackLayout;horizontal=1;horizontalStack=0;resizeParent=1;resizeParentMax=0;resizeLast=0;marginBottom=0;container=0;fontSize=14;" parent="1" vertex="1">
          <mxGeometry x="300" y="90" width="190" height="250" as="geometry" />
        </mxCell>
        <mxCell id="v0lIDTa_m5VfAxgYYqqX-2" value="" style="line;strokeWidth=1;fillColor=none;align=left;verticalAlign=middle;spacingTop=-1;spacingLeft=3;spacingRight=3;rotatable=0;labelPosition=right;points=[];portConstraint=eastwest;container=0;fontSize=14;" parent="1" vertex="1">
          <mxGeometry x="300" y="125" width="190" height="8" as="geometry" />
        </mxCell>
        <mxCell id="v0lIDTa_m5VfAxgYYqqX-3" value="" style="shape=module;jettyWidth=10;jettyHeight=4;container=0;fontSize=14;" parent="1" vertex="1">
          <mxGeometry x="451.5" y="99" width="27" height="20" as="geometry">
            <mxPoint x="-36" y="9" as="offset" />
          </mxGeometry>
        </mxCell>
        <mxCell id="v0lIDTa_m5VfAxgYYqqX-7" value="" style="html=1;rounded=0;" parent="1" vertex="1">
          <mxGeometry x="295" y="191" width="10" height="10" as="geometry" />
        </mxCell>
        <mxCell id="v0lIDTa_m5VfAxgYYqqX-8" value="" style="endArrow=none;html=1;rounded=0;align=center;verticalAlign=top;endFill=0;labelBackgroundColor=none;endSize=2;" parent="1" source="v0lIDTa_m5VfAxgYYqqX-7" target="v0lIDTa_m5VfAxgYYqqX-9" edge="1">
          <mxGeometry relative="1" as="geometry" />
        </mxCell>
        <mxCell id="v0lIDTa_m5VfAxgYYqqX-9" value="" style="ellipse;html=1;fontSize=11;align=center;fillColor=none;points=[];aspect=fixed;resizable=0;verticalAlign=bottom;labelPosition=center;verticalLabelPosition=top;flipH=1;" parent="1" vertex="1">
          <mxGeometry x="212" y="192" width="8" height="8" as="geometry" />
        </mxCell>
        <mxCell id="v0lIDTa_m5VfAxgYYqqX-10" value="Web&amp;nbsp;&lt;br&gt;Platform" style="shape=module;align=left;spacingLeft=20;align=center;verticalAlign=top;whiteSpace=wrap;html=1;" parent="1" vertex="1">
          <mxGeometry x="30" y="171" width="100" height="50" as="geometry" />
        </mxCell>
        <mxCell id="v0lIDTa_m5VfAxgYYqqX-13" value="dashboard" style="text;html=1;align=center;verticalAlign=middle;resizable=0;points=[];autosize=1;strokeColor=none;fillColor=none;labelBackgroundColor=default;" parent="1" vertex="1">
          <mxGeometry x="260" y="201" width="80" height="30" as="geometry" />
        </mxCell>
        <mxCell id="v0lIDTa_m5VfAxgYYqqX-15" value="" style="endArrow=none;html=1;rounded=0;align=center;verticalAlign=top;endFill=0;labelBackgroundColor=none;endSize=2;exitX=1;exitY=0.5;exitDx=0;exitDy=0;" parent="1" source="v0lIDTa_m5VfAxgYYqqX-10" target="v0lIDTa_m5VfAxgYYqqX-16" edge="1">
          <mxGeometry relative="1" as="geometry">
            <mxPoint x="135" y="206" as="sourcePoint" />
          </mxGeometry>
        </mxCell>
        <mxCell id="v0lIDTa_m5VfAxgYYqqX-16" value="" style="shape=requiredInterface;html=1;fontSize=11;align=center;fillColor=none;points=[];aspect=fixed;resizable=0;verticalAlign=bottom;labelPosition=center;verticalLabelPosition=top;flipH=1;" parent="1" vertex="1">
          <mxGeometry x="210" y="191" width="5" height="10" as="geometry" />
        </mxCell>
        <mxCell id="v0lIDTa_m5VfAxgYYqqX-17" value="dashboard&lt;br&gt;interface" style="text;html=1;align=center;verticalAlign=middle;resizable=0;points=[];autosize=1;strokeColor=none;fillColor=none;labelBackgroundColor=default;" parent="1" vertex="1">
          <mxGeometry x="172.5" y="202" width="80" height="40" as="geometry" />
        </mxCell>
        <mxCell id="v0lIDTa_m5VfAxgYYqqX-31" value="" style="html=1;rounded=0;" parent="1" vertex="1">
          <mxGeometry x="485" y="161" width="10" height="10" as="geometry" />
        </mxCell>
        <mxCell id="v0lIDTa_m5VfAxgYYqqX-32" value="" style="endArrow=none;html=1;rounded=0;align=center;verticalAlign=top;endFill=0;labelBackgroundColor=none;endSize=2;" parent="1" source="v0lIDTa_m5VfAxgYYqqX-31" target="v0lIDTa_m5VfAxgYYqqX-33" edge="1">
          <mxGeometry relative="1" as="geometry" />
        </mxCell>
        <mxCell id="v0lIDTa_m5VfAxgYYqqX-33" value="" style="shape=requiredInterface;html=1;fontSize=11;align=center;fillColor=none;points=[];aspect=fixed;resizable=0;verticalAlign=bottom;labelPosition=center;verticalLabelPosition=top;flipH=1;" parent="1" vertex="1">
          <mxGeometry x="580" y="161" width="5" height="10" as="geometry" />
        </mxCell>
        <mxCell id="v0lIDTa_m5VfAxgYYqqX-35" value="DBMS" style="text;html=1;align=center;verticalAlign=middle;resizable=0;points=[];autosize=1;strokeColor=none;fillColor=none;labelBackgroundColor=default;" parent="1" vertex="1">
          <mxGeometry x="460" y="133" width="60" height="30" as="geometry" />
        </mxCell>
        <mxCell id="v0lIDTa_m5VfAxgYYqqX-36" value="Database&lt;br&gt;Server" style="shape=module;align=left;spacingLeft=20;align=center;verticalAlign=top;whiteSpace=wrap;html=1;" parent="1" vertex="1">
          <mxGeometry x="650" y="141" width="100" height="50" as="geometry" />
        </mxCell>
        <mxCell id="v0lIDTa_m5VfAxgYYqqX-37" value="" style="ellipse;html=1;fontSize=11;align=center;fillColor=none;points=[];aspect=fixed;resizable=0;verticalAlign=bottom;labelPosition=center;verticalLabelPosition=top;flipH=1;" parent="1" vertex="1">
          <mxGeometry x="582" y="162" width="8" height="8" as="geometry" />
        </mxCell>
        <mxCell id="v0lIDTa_m5VfAxgYYqqX-38" value="" style="endArrow=none;html=1;rounded=0;align=center;verticalAlign=top;endFill=0;labelBackgroundColor=none;endSize=2;entryX=0.099;entryY=0.498;entryDx=0;entryDy=0;entryPerimeter=0;" parent="1" target="v0lIDTa_m5VfAxgYYqqX-36" edge="1">
          <mxGeometry relative="1" as="geometry">
            <mxPoint x="590" y="165.85" as="sourcePoint" />
            <mxPoint x="660" y="166" as="targetPoint" />
          </mxGeometry>
        </mxCell>
        <mxCell id="v0lIDTa_m5VfAxgYYqqX-39" value="DBMS API" style="text;html=1;align=center;verticalAlign=middle;resizable=0;points=[];autosize=1;strokeColor=none;fillColor=none;labelBackgroundColor=default;" parent="1" vertex="1">
          <mxGeometry x="542.5" y="132" width="80" height="30" as="geometry" />
        </mxCell>
        <mxCell id="v0lIDTa_m5VfAxgYYqqX-40" value="Mail&lt;br&gt;Server" style="shape=module;align=left;spacingLeft=20;align=center;verticalAlign=top;whiteSpace=wrap;html=1;" parent="1" vertex="1">
          <mxGeometry x="650" y="212" width="100" height="50" as="geometry" />
        </mxCell>
        <mxCell id="v0lIDTa_m5VfAxgYYqqX-41" value="" style="html=1;rounded=0;" parent="1" vertex="1">
          <mxGeometry x="485" y="232" width="10" height="10" as="geometry" />
        </mxCell>
        <mxCell id="v0lIDTa_m5VfAxgYYqqX-42" value="" style="endArrow=none;html=1;rounded=0;align=center;verticalAlign=top;endFill=0;labelBackgroundColor=none;endSize=2;" parent="1" source="v0lIDTa_m5VfAxgYYqqX-41" target="v0lIDTa_m5VfAxgYYqqX-43" edge="1">
          <mxGeometry relative="1" as="geometry" />
        </mxCell>
        <mxCell id="v0lIDTa_m5VfAxgYYqqX-43" value="" style="shape=requiredInterface;html=1;fontSize=11;align=center;fillColor=none;points=[];aspect=fixed;resizable=0;verticalAlign=bottom;labelPosition=center;verticalLabelPosition=top;flipH=1;" parent="1" vertex="1">
          <mxGeometry x="580" y="232" width="5" height="10" as="geometry" />
        </mxCell>
        <mxCell id="v0lIDTa_m5VfAxgYYqqX-44" value="Mail" style="text;html=1;align=center;verticalAlign=middle;resizable=0;points=[];autosize=1;strokeColor=none;fillColor=none;labelBackgroundColor=default;" parent="1" vertex="1">
          <mxGeometry x="465" y="202" width="50" height="30" as="geometry" />
        </mxCell>
        <mxCell id="v0lIDTa_m5VfAxgYYqqX-45" value="" style="ellipse;html=1;fontSize=11;align=center;fillColor=none;points=[];aspect=fixed;resizable=0;verticalAlign=bottom;labelPosition=center;verticalLabelPosition=top;flipH=1;" parent="1" vertex="1">
          <mxGeometry x="582" y="233" width="8" height="8" as="geometry" />
        </mxCell>
        <mxCell id="v0lIDTa_m5VfAxgYYqqX-46" value="Mail API" style="text;html=1;align=center;verticalAlign=middle;resizable=0;points=[];autosize=1;strokeColor=none;fillColor=none;labelBackgroundColor=default;" parent="1" vertex="1">
          <mxGeometry x="551" y="202" width="70" height="30" as="geometry" />
        </mxCell>
        <mxCell id="v0lIDTa_m5VfAxgYYqqX-47" value="" style="endArrow=none;html=1;rounded=0;align=center;verticalAlign=top;endFill=0;labelBackgroundColor=none;endSize=2;entryX=0.1;entryY=0.5;entryDx=0;entryDy=0;entryPerimeter=0;exitX=0;exitY=0.583;exitDx=0;exitDy=0;exitPerimeter=0;" parent="1" source="v0lIDTa_m5VfAxgYYqqX-45" target="v0lIDTa_m5VfAxgYYqqX-40" edge="1">
          <mxGeometry relative="1" as="geometry">
            <mxPoint x="600" y="175.85" as="sourcePoint" />
            <mxPoint x="670" y="176" as="targetPoint" />
          </mxGeometry>
        </mxCell>
        <mxCell id="v0lIDTa_m5VfAxgYYqqX-48" value="GitHub&amp;nbsp;&lt;br&gt;API" style="shape=module;align=left;spacingLeft=20;align=center;verticalAlign=top;whiteSpace=wrap;html=1;" parent="1" vertex="1">
          <mxGeometry x="650" y="278" width="100" height="50" as="geometry" />
        </mxCell>
        <mxCell id="v0lIDTa_m5VfAxgYYqqX-49" value="" style="html=1;rounded=0;" parent="1" vertex="1">
          <mxGeometry x="485" y="298" width="10" height="10" as="geometry" />
        </mxCell>
        <mxCell id="v0lIDTa_m5VfAxgYYqqX-50" value="" style="endArrow=none;html=1;rounded=0;align=center;verticalAlign=top;endFill=0;labelBackgroundColor=none;endSize=2;" parent="1" source="v0lIDTa_m5VfAxgYYqqX-49" target="v0lIDTa_m5VfAxgYYqqX-51" edge="1">
          <mxGeometry relative="1" as="geometry" />
        </mxCell>
        <mxCell id="v0lIDTa_m5VfAxgYYqqX-51" value="" style="shape=requiredInterface;html=1;fontSize=11;align=center;fillColor=none;points=[];aspect=fixed;resizable=0;verticalAlign=bottom;labelPosition=center;verticalLabelPosition=top;flipH=1;" parent="1" vertex="1">
          <mxGeometry x="580" y="298" width="5" height="10" as="geometry" />
        </mxCell>
        <mxCell id="v0lIDTa_m5VfAxgYYqqX-52" value="GitHub" style="text;html=1;align=center;verticalAlign=middle;resizable=0;points=[];autosize=1;strokeColor=none;fillColor=none;labelBackgroundColor=default;" parent="1" vertex="1">
          <mxGeometry x="460" y="268" width="60" height="30" as="geometry" />
        </mxCell>
        <mxCell id="v0lIDTa_m5VfAxgYYqqX-53" value="" style="ellipse;html=1;fontSize=11;align=center;fillColor=none;points=[];aspect=fixed;resizable=0;verticalAlign=bottom;labelPosition=center;verticalLabelPosition=top;flipH=1;" parent="1" vertex="1">
          <mxGeometry x="582" y="299" width="8" height="8" as="geometry" />
        </mxCell>
        <mxCell id="v0lIDTa_m5VfAxgYYqqX-54" value="GitHub API" style="text;html=1;align=center;verticalAlign=middle;resizable=0;points=[];autosize=1;strokeColor=none;fillColor=none;labelBackgroundColor=default;" parent="1" vertex="1">
          <mxGeometry x="546" y="268" width="80" height="30" as="geometry" />
        </mxCell>
        <mxCell id="v0lIDTa_m5VfAxgYYqqX-55" value="" style="endArrow=none;html=1;rounded=0;align=center;verticalAlign=top;endFill=0;labelBackgroundColor=none;endSize=2;entryX=0.1;entryY=0.5;entryDx=0;entryDy=0;entryPerimeter=0;exitX=0;exitY=0.583;exitDx=0;exitDy=0;exitPerimeter=0;" parent="1" source="v0lIDTa_m5VfAxgYYqqX-53" target="v0lIDTa_m5VfAxgYYqqX-48" edge="1">
          <mxGeometry relative="1" as="geometry">
            <mxPoint x="600" y="241.85" as="sourcePoint" />
            <mxPoint x="670" y="242" as="targetPoint" />
          </mxGeometry>
        </mxCell>
        <mxCell id="v0lIDTa_m5VfAxgYYqqX-64" value="Static analysis tool API" style="shape=module;align=left;spacingLeft=20;align=center;verticalAlign=top;whiteSpace=wrap;html=1;" parent="1" vertex="1">
          <mxGeometry x="651" y="347" width="109" height="50" as="geometry" />
        </mxCell>
        <mxCell id="v0lIDTa_m5VfAxgYYqqX-65" value="" style="html=1;rounded=0;" parent="1" vertex="1">
          <mxGeometry x="460" y="335" width="10" height="10" as="geometry" />
        </mxCell>
        <mxCell id="v0lIDTa_m5VfAxgYYqqX-66" value="" style="endArrow=none;html=1;rounded=0;align=center;verticalAlign=top;endFill=0;labelBackgroundColor=none;endSize=2;edgeStyle=orthogonalEdgeStyle;" parent="1" source="v0lIDTa_m5VfAxgYYqqX-65" target="v0lIDTa_m5VfAxgYYqqX-67" edge="1">
          <mxGeometry relative="1" as="geometry">
            <Array as="points">
              <mxPoint x="465" y="372" />
            </Array>
          </mxGeometry>
        </mxCell>
        <mxCell id="v0lIDTa_m5VfAxgYYqqX-67" value="" style="shape=requiredInterface;html=1;fontSize=11;align=center;fillColor=none;points=[];aspect=fixed;resizable=0;verticalAlign=bottom;labelPosition=center;verticalLabelPosition=top;flipH=1;" parent="1" vertex="1">
          <mxGeometry x="581" y="367" width="5" height="10" as="geometry" />
        </mxCell>
        <mxCell id="v0lIDTa_m5VfAxgYYqqX-68" value="Static &lt;br&gt;analysis &lt;br&gt;tool" style="text;html=1;align=center;verticalAlign=middle;resizable=0;points=[];autosize=1;strokeColor=none;fillColor=none;labelBackgroundColor=default;" parent="1" vertex="1">
          <mxGeometry x="390" y="310" width="70" height="60" as="geometry" />
        </mxCell>
        <mxCell id="v0lIDTa_m5VfAxgYYqqX-69" value="" style="ellipse;html=1;fontSize=11;align=center;fillColor=none;points=[];aspect=fixed;resizable=0;verticalAlign=bottom;labelPosition=center;verticalLabelPosition=top;flipH=1;" parent="1" vertex="1">
          <mxGeometry x="583" y="368" width="8" height="8" as="geometry" />
        </mxCell>
        <mxCell id="v0lIDTa_m5VfAxgYYqqX-70" value="Static analysis &lt;br&gt;tool API" style="text;html=1;align=center;verticalAlign=middle;resizable=0;points=[];autosize=1;strokeColor=none;fillColor=none;labelBackgroundColor=default;" parent="1" vertex="1">
          <mxGeometry x="537" y="327" width="100" height="40" as="geometry" />
        </mxCell>
        <mxCell id="v0lIDTa_m5VfAxgYYqqX-71" value="" style="endArrow=none;html=1;rounded=0;align=center;verticalAlign=top;endFill=0;labelBackgroundColor=none;endSize=2;entryX=0.1;entryY=0.5;entryDx=0;entryDy=0;entryPerimeter=0;exitX=0;exitY=0.583;exitDx=0;exitDy=0;exitPerimeter=0;" parent="1" source="v0lIDTa_m5VfAxgYYqqX-69" target="v0lIDTa_m5VfAxgYYqqX-64" edge="1">
          <mxGeometry relative="1" as="geometry">
            <mxPoint x="601" y="310.85" as="sourcePoint" />
            <mxPoint x="671" y="311" as="targetPoint" />
          </mxGeometry>
        </mxCell>
      </root>
    </mxGraphModel>
  </diagram>
  <diagram id="GyiC1Q3agGDPkBkKuWdQ" name="component view">
    <mxGraphModel dx="318" dy="174" grid="1" gridSize="10" guides="1" tooltips="1" connect="1" arrows="1" fold="1" page="1" pageScale="1" pageWidth="827" pageHeight="1169" math="0" shadow="0">
      <root>
        <mxCell id="0" />
        <mxCell id="1" parent="0" />
        <mxCell id="uggKzCtEMk2cHMjs6Qy_-10" value="&lt;&lt;subsystem&gt;&gt; CKB server" style="fontStyle=1;align=center;verticalAlign=top;childLayout=stackLayout;horizontal=1;horizontalStack=0;resizeParent=1;resizeParentMax=0;resizeLast=0;marginBottom=0;container=0;fontSize=15;" parent="1" vertex="1">
          <mxGeometry x="47" y="162.94" width="722.88" height="480" as="geometry" />
        </mxCell>
        <mxCell id="uggKzCtEMk2cHMjs6Qy_-13" value="" style="line;strokeWidth=1;fillColor=none;align=left;verticalAlign=middle;spacingTop=-1;spacingLeft=3;spacingRight=3;rotatable=0;labelPosition=right;points=[];portConstraint=eastwest;container=0;fontSize=14;" parent="1" vertex="1">
          <mxGeometry x="47.12" y="200" width="722.88" height="8" as="geometry" />
        </mxCell>
        <mxCell id="uggKzCtEMk2cHMjs6Qy_-12" value="" style="shape=module;jettyWidth=10;jettyHeight=4;container=0;fontSize=14;" parent="1" vertex="1">
          <mxGeometry x="733" y="170" width="27" height="20" as="geometry">
            <mxPoint x="-36" y="9" as="offset" />
          </mxGeometry>
        </mxCell>
        <mxCell id="NMzGeiKC0gR0xCybBi5c-33" style="rounded=0;orthogonalLoop=1;jettySize=auto;html=1;exitX=0.5;exitY=0;exitDx=0;exitDy=0;endArrow=none;endFill=0;entryX=1.065;entryY=0.595;entryDx=0;entryDy=0;entryPerimeter=0;edgeStyle=orthogonalEdgeStyle;fontSize=14;" parent="1" source="o3Z6A7jvwZWguGTXYTzA-1" target="NMzGeiKC0gR0xCybBi5c-32" edge="1">
          <mxGeometry relative="1" as="geometry">
            <mxPoint x="555" y="317.87" as="targetPoint" />
            <Array as="points">
              <mxPoint x="520" y="401" />
              <mxPoint x="520" y="274" />
            </Array>
          </mxGeometry>
        </mxCell>
        <mxCell id="o3Z6A7jvwZWguGTXYTzA-1" value="Model" style="shape=module;align=center;spacingLeft=20;align=center;verticalAlign=top;whiteSpace=wrap;html=1;fontSize=14;" parent="1" vertex="1">
          <mxGeometry x="491.7499999999999" y="400.87" width="100" height="50" as="geometry" />
        </mxCell>
        <mxCell id="o3Z6A7jvwZWguGTXYTzA-2" value="Mail&lt;br style=&quot;font-size: 14px;&quot;&gt;manager" style="shape=module;align=center;spacingLeft=20;align=center;verticalAlign=top;whiteSpace=wrap;html=1;fontSize=14;" parent="1" vertex="1">
          <mxGeometry x="622" y="249.93" width="100" height="50" as="geometry" />
        </mxCell>
        <mxCell id="o3Z6A7jvwZWguGTXYTzA-3" value="Entity&lt;br style=&quot;font-size: 14px;&quot;&gt;manager" style="shape=module;align=center;spacingLeft=20;align=center;verticalAlign=top;whiteSpace=wrap;html=1;fontSize=14;" parent="1" vertex="1">
          <mxGeometry x="623" y="331.87" width="100" height="50" as="geometry" />
        </mxCell>
        <mxCell id="NMzGeiKC0gR0xCybBi5c-6" style="rounded=0;orthogonalLoop=1;jettySize=auto;html=1;exitX=0.5;exitY=1;exitDx=0;exitDy=0;endArrow=none;endFill=0;entryX=1.085;entryY=0.594;entryDx=0;entryDy=0;edgeStyle=orthogonalEdgeStyle;fontSize=14;entryPerimeter=0;" parent="1" source="o3Z6A7jvwZWguGTXYTzA-7" target="NMzGeiKC0gR0xCybBi5c-9" edge="1">
          <mxGeometry relative="1" as="geometry">
            <mxPoint x="393" y="634.87" as="targetPoint" />
            <mxPoint x="382.5" y="637.87" as="sourcePoint" />
          </mxGeometry>
        </mxCell>
        <mxCell id="MKqeY2xma5D0B7bhtNGr-7" style="edgeStyle=orthogonalEdgeStyle;rounded=0;orthogonalLoop=1;jettySize=auto;html=1;exitX=1;exitY=0.5;exitDx=0;exitDy=0;entryX=1.038;entryY=0.415;entryDx=0;entryDy=0;endArrow=none;endFill=0;fontSize=14;entryPerimeter=0;" parent="1" source="o3Z6A7jvwZWguGTXYTzA-7" target="MKqeY2xma5D0B7bhtNGr-6" edge="1">
          <mxGeometry relative="1" as="geometry" />
        </mxCell>
        <mxCell id="MKqeY2xma5D0B7bhtNGr-13" style="edgeStyle=orthogonalEdgeStyle;rounded=0;orthogonalLoop=1;jettySize=auto;html=1;exitX=0.5;exitY=0;exitDx=0;exitDy=0;entryX=1.033;entryY=0.511;entryDx=0;entryDy=0;endArrow=none;endFill=0;fontSize=14;entryPerimeter=0;" parent="1" source="o3Z6A7jvwZWguGTXYTzA-7" target="MKqeY2xma5D0B7bhtNGr-12" edge="1">
          <mxGeometry relative="1" as="geometry" />
        </mxCell>
        <mxCell id="o3Z6A7jvwZWguGTXYTzA-7" value="Dashboard manager" style="shape=module;align=center;spacingLeft=20;align=center;verticalAlign=top;whiteSpace=wrap;html=1;fontSize=14;" parent="1" vertex="1">
          <mxGeometry x="82" y="394.87" width="100" height="50" as="geometry" />
        </mxCell>
        <mxCell id="gEFSZrqabxyR4UEorBDO-7" style="edgeStyle=orthogonalEdgeStyle;rounded=0;orthogonalLoop=1;jettySize=auto;html=1;exitX=1;exitY=0.5;exitDx=0;exitDy=0;endArrow=none;endFill=0;fontSize=14;" parent="1" source="o3Z6A7jvwZWguGTXYTzA-9" edge="1">
          <mxGeometry relative="1" as="geometry">
            <mxPoint x="420" y="420" as="targetPoint" />
          </mxGeometry>
        </mxCell>
        <mxCell id="o3Z6A7jvwZWguGTXYTzA-9" value="Tournament&amp;nbsp;&lt;br style=&quot;font-size: 14px;&quot;&gt;manager" style="shape=module;align=center;spacingLeft=20;align=center;verticalAlign=top;whiteSpace=wrap;html=1;fontSize=14;" parent="1" vertex="1">
          <mxGeometry x="275" y="324.87" width="120" height="50" as="geometry" />
        </mxCell>
        <mxCell id="o3Z6A7jvwZWguGTXYTzA-10" value="Battle &lt;br style=&quot;font-size: 14px;&quot;&gt;manager" style="shape=module;align=center;spacingLeft=20;align=center;verticalAlign=top;whiteSpace=wrap;html=1;fontSize=14;" parent="1" vertex="1">
          <mxGeometry x="275" y="395.88" width="120" height="50" as="geometry" />
        </mxCell>
        <mxCell id="gEFSZrqabxyR4UEorBDO-1" value="" style="ellipse;html=1;fontSize=14;" parent="1" vertex="1">
          <mxGeometry x="444" y="421.87" width="7.874" height="7.874" as="geometry" />
        </mxCell>
        <mxCell id="gEFSZrqabxyR4UEorBDO-2" value="" style="endArrow=none;html=1;rounded=0;align=center;verticalAlign=top;endFill=0;labelBackgroundColor=none;endSize=6;exitX=0.098;exitY=0.509;exitDx=0;exitDy=0;exitPerimeter=0;fontSize=14;" parent="1" source="o3Z6A7jvwZWguGTXYTzA-1" target="gEFSZrqabxyR4UEorBDO-1" edge="1">
          <mxGeometry relative="1" as="geometry">
            <mxPoint x="519.3599999999999" y="427.22" as="sourcePoint" />
          </mxGeometry>
        </mxCell>
        <mxCell id="gEFSZrqabxyR4UEorBDO-5" value="" style="endArrow=none;html=1;rounded=0;align=center;verticalAlign=top;endFill=0;labelBackgroundColor=none;endSize=2;exitX=1.003;exitY=0.567;exitDx=0;exitDy=0;exitPerimeter=0;entryX=0.98;entryY=0.389;entryDx=0;entryDy=0;entryPerimeter=0;fontSize=14;" parent="1" source="o3Z6A7jvwZWguGTXYTzA-10" target="NMzGeiKC0gR0xCybBi5c-22" edge="1">
          <mxGeometry relative="1" as="geometry">
            <mxPoint x="424" y="426.87103311258284" as="sourcePoint" />
            <mxPoint x="552" y="427" as="targetPoint" />
          </mxGeometry>
        </mxCell>
        <mxCell id="NMzGeiKC0gR0xCybBi5c-5" value="" style="ellipse;html=1;fontSize=14;" parent="1" vertex="1">
          <mxGeometry x="203.2" y="488.99999999999994" width="7.874" height="7.874" as="geometry" />
        </mxCell>
        <mxCell id="NMzGeiKC0gR0xCybBi5c-11" value="access&lt;br&gt;interface" style="text;html=1;align=center;verticalAlign=middle;resizable=0;points=[];autosize=1;strokeColor=none;fillColor=none;fontSize=14;" parent="1" vertex="1">
          <mxGeometry x="167.14" y="494" width="80" height="50" as="geometry" />
        </mxCell>
        <mxCell id="NMzGeiKC0gR0xCybBi5c-12" value="model &lt;br style=&quot;font-size: 14px;&quot;&gt;interface" style="text;html=1;align=center;verticalAlign=middle;resizable=0;points=[];autosize=1;strokeColor=none;fillColor=none;fontSize=14;" parent="1" vertex="1">
          <mxGeometry x="416.75" y="377.94" width="80" height="50" as="geometry" />
        </mxCell>
        <mxCell id="NMzGeiKC0gR0xCybBi5c-14" value="" style="ellipse;html=1;fontSize=14;" parent="1" vertex="1">
          <mxGeometry x="590" y="352.93" width="7.874" height="7.874" as="geometry" />
        </mxCell>
        <mxCell id="NMzGeiKC0gR0xCybBi5c-17" value="" style="shape=requiredInterface;html=1;fontSize=14;align=center;fillColor=none;points=[];aspect=fixed;resizable=0;verticalAlign=bottom;labelPosition=center;verticalLabelPosition=top;flipH=1;rotation=0;" parent="1" vertex="1">
          <mxGeometry x="586.9962962962964" y="351.86999999999995" width="5" height="10" as="geometry" />
        </mxCell>
        <mxCell id="NMzGeiKC0gR0xCybBi5c-18" style="rounded=0;orthogonalLoop=1;jettySize=auto;html=1;exitX=0.103;exitY=0.497;exitDx=0;exitDy=0;exitPerimeter=0;endArrow=none;endFill=0;entryX=1;entryY=0.5;entryDx=0;entryDy=0;fontSize=14;" parent="1" source="o3Z6A7jvwZWguGTXYTzA-3" target="NMzGeiKC0gR0xCybBi5c-14" edge="1">
          <mxGeometry relative="1" as="geometry">
            <mxPoint x="616.8739999999607" y="356.86699999999996" as="targetPoint" />
            <mxPoint x="654.3999999999999" y="356.82000000000005" as="sourcePoint" />
          </mxGeometry>
        </mxCell>
        <mxCell id="NMzGeiKC0gR0xCybBi5c-19" value="entity manager&lt;br style=&quot;font-size: 14px;&quot;&gt;interface" style="text;html=1;align=center;verticalAlign=middle;resizable=0;points=[];autosize=1;strokeColor=none;fillColor=none;fontSize=14;" parent="1" vertex="1">
          <mxGeometry x="512" y="304.87" width="120" height="50" as="geometry" />
        </mxCell>
        <mxCell id="NMzGeiKC0gR0xCybBi5c-22" value="" style="shape=requiredInterface;html=1;fontSize=14;align=center;fillColor=none;points=[];aspect=fixed;resizable=0;verticalAlign=bottom;labelPosition=center;verticalLabelPosition=top;flipH=1;rotation=0;" parent="1" vertex="1">
          <mxGeometry x="441.99629629629624" y="420.87" width="5" height="10" as="geometry" />
        </mxCell>
        <mxCell id="NMzGeiKC0gR0xCybBi5c-31" value="" style="ellipse;html=1;fontSize=14;" parent="1" vertex="1">
          <mxGeometry x="599.8799999999999" y="269" width="7.874" height="7.874" as="geometry" />
        </mxCell>
        <mxCell id="NMzGeiKC0gR0xCybBi5c-32" value="" style="shape=requiredInterface;html=1;fontSize=14;align=center;fillColor=none;points=[];aspect=fixed;resizable=0;verticalAlign=bottom;labelPosition=center;verticalLabelPosition=top;flipH=1;rotation=0;" parent="1" vertex="1">
          <mxGeometry x="597.8762962962963" y="267.86999999999995" width="5" height="10" as="geometry" />
        </mxCell>
        <mxCell id="NMzGeiKC0gR0xCybBi5c-34" style="rounded=0;orthogonalLoop=1;jettySize=auto;html=1;exitX=0.096;exitY=0.474;exitDx=0;exitDy=0;entryX=1;entryY=0.5;entryDx=0;entryDy=0;endArrow=none;endFill=0;exitPerimeter=0;fontSize=14;" parent="1" source="o3Z6A7jvwZWguGTXYTzA-2" target="NMzGeiKC0gR0xCybBi5c-31" edge="1">
          <mxGeometry relative="1" as="geometry">
            <mxPoint x="757.72" y="243.35999999999996" as="sourcePoint" />
            <mxPoint x="616.8199999999999" y="288" as="targetPoint" />
          </mxGeometry>
        </mxCell>
        <mxCell id="NMzGeiKC0gR0xCybBi5c-35" value="mail manager&lt;br style=&quot;font-size: 14px;&quot;&gt;interface" style="text;html=1;align=center;verticalAlign=middle;resizable=0;points=[];autosize=1;strokeColor=none;fillColor=none;fontSize=14;" parent="1" vertex="1">
          <mxGeometry x="516.9999999999999" y="222.86" width="110" height="50" as="geometry" />
        </mxCell>
        <mxCell id="MKqeY2xma5D0B7bhtNGr-20" style="rounded=0;orthogonalLoop=1;jettySize=auto;html=1;exitX=0.471;exitY=0.043;exitDx=0;exitDy=0;endArrow=none;endFill=0;entryX=1.169;entryY=0.403;entryDx=0;entryDy=0;entryPerimeter=0;exitPerimeter=0;fontSize=14;endSize=0;startSize=0;jumpSize=15;" parent="1" edge="1">
          <mxGeometry relative="1" as="geometry">
            <mxPoint x="420" y="424.9000000000001" as="targetPoint" />
            <mxPoint x="421" y="535.78799" as="sourcePoint" />
          </mxGeometry>
        </mxCell>
        <mxCell id="NMzGeiKC0gR0xCybBi5c-36" value="Automatic evaluation manager" style="shape=module;align=center;spacingLeft=20;align=center;verticalAlign=top;whiteSpace=wrap;html=1;fontSize=14;" parent="1" vertex="1">
          <mxGeometry x="400" y="524.34" width="120" height="66.66" as="geometry" />
        </mxCell>
        <mxCell id="A1Fv1hyo14tyoMTPFSJz-1" value="" style="html=1;rounded=0;fontSize=14;" parent="1" vertex="1">
          <mxGeometry x="43.25" y="415.07000000000005" width="7.874" height="7.874" as="geometry" />
        </mxCell>
        <mxCell id="A1Fv1hyo14tyoMTPFSJz-5" value="" style="html=1;rounded=0;fontSize=14;" parent="1" vertex="1">
          <mxGeometry x="767" y="352.99000000000007" width="7.874" height="7.874" as="geometry" />
        </mxCell>
        <mxCell id="A1Fv1hyo14tyoMTPFSJz-6" value="" style="html=1;rounded=0;fontSize=14;" parent="1" vertex="1">
          <mxGeometry x="766" y="542.8700000000001" width="7.874" height="7.874" as="geometry" />
        </mxCell>
        <mxCell id="4u4P3v0Mj4FdsXaKuPi9-1" value="" style="html=1;rounded=0;fontSize=14;" parent="1" vertex="1">
          <mxGeometry x="766" y="270.99000000000007" width="7.874" height="7.874" as="geometry" />
        </mxCell>
        <mxCell id="4u4P3v0Mj4FdsXaKuPi9-2" value="" style="endArrow=none;html=1;rounded=0;align=center;verticalAlign=top;endFill=0;labelBackgroundColor=none;endSize=6;exitX=1;exitY=0.5;exitDx=0;exitDy=0;entryX=1.017;entryY=0.488;entryDx=0;entryDy=0;entryPerimeter=0;fontSize=14;" parent="1" source="o3Z6A7jvwZWguGTXYTzA-3" target="4u4P3v0Mj4FdsXaKuPi9-3" edge="1">
          <mxGeometry relative="1" as="geometry">
            <mxPoint x="734" y="354.4" as="sourcePoint" />
            <mxPoint x="787" y="355.4" as="targetPoint" />
          </mxGeometry>
        </mxCell>
        <mxCell id="4u4P3v0Mj4FdsXaKuPi9-3" value="" style="shape=requiredInterface;html=1;fontSize=14;align=center;fillColor=none;points=[];aspect=fixed;resizable=0;verticalAlign=bottom;labelPosition=center;verticalLabelPosition=top;flipH=1;rotation=0;" parent="1" vertex="1">
          <mxGeometry x="758.9962962962964" y="351.98999999999995" width="5" height="10" as="geometry" />
        </mxCell>
        <mxCell id="4u4P3v0Mj4FdsXaKuPi9-4" value="" style="shape=requiredInterface;html=1;fontSize=14;align=center;fillColor=none;points=[];aspect=fixed;resizable=0;verticalAlign=bottom;labelPosition=center;verticalLabelPosition=top;flipH=1;rotation=0;" parent="1" vertex="1">
          <mxGeometry x="759.9962962962964" y="269.85999999999996" width="5" height="10" as="geometry" />
        </mxCell>
        <mxCell id="4u4P3v0Mj4FdsXaKuPi9-5" value="" style="endArrow=none;html=1;rounded=0;align=center;verticalAlign=top;endFill=0;labelBackgroundColor=none;endSize=6;exitX=1;exitY=0.5;exitDx=0;exitDy=0;entryX=0.986;entryY=0.505;entryDx=0;entryDy=0;entryPerimeter=0;fontSize=14;" parent="1" source="o3Z6A7jvwZWguGTXYTzA-2" target="4u4P3v0Mj4FdsXaKuPi9-4" edge="1">
          <mxGeometry relative="1" as="geometry">
            <mxPoint x="732" y="366.87" as="sourcePoint" />
            <mxPoint x="781" y="364.87" as="targetPoint" />
          </mxGeometry>
        </mxCell>
        <mxCell id="dT7WxG1rzxciY0QNFn4m-1" value="mail" style="text;html=1;align=center;verticalAlign=middle;resizable=0;points=[];autosize=1;strokeColor=none;fillColor=none;labelBackgroundColor=default;fontSize=14;" parent="1" vertex="1">
          <mxGeometry x="745.94" y="237.86" width="50" height="30" as="geometry" />
        </mxCell>
        <mxCell id="dT7WxG1rzxciY0QNFn4m-2" value="DBMS" style="text;html=1;align=center;verticalAlign=middle;resizable=0;points=[];autosize=1;strokeColor=none;fillColor=none;labelBackgroundColor=default;fontSize=14;" parent="1" vertex="1">
          <mxGeometry x="741.5" y="324.87" width="60" height="30" as="geometry" />
        </mxCell>
        <mxCell id="acpNCpp4_QS4X7OmRHOk-1" value="GitHub" style="text;html=1;align=center;verticalAlign=middle;resizable=0;points=[];autosize=1;strokeColor=none;fillColor=none;labelBackgroundColor=default;fontSize=14;" parent="1" vertex="1">
          <mxGeometry x="732" y="509.74" width="70" height="30" as="geometry" />
        </mxCell>
        <mxCell id="acpNCpp4_QS4X7OmRHOk-2" value="" style="html=1;rounded=0;fontSize=14;" parent="1" vertex="1">
          <mxGeometry x="767" y="571.87" width="7.874" height="7.874" as="geometry" />
        </mxCell>
        <mxCell id="acpNCpp4_QS4X7OmRHOk-3" value="static analysis &lt;br style=&quot;font-size: 14px;&quot;&gt;tool" style="text;html=1;align=center;verticalAlign=middle;resizable=0;points=[];autosize=1;strokeColor=none;fillColor=none;labelBackgroundColor=default;fontSize=14;" parent="1" vertex="1">
          <mxGeometry x="708" y="588" width="110" height="50" as="geometry" />
        </mxCell>
        <mxCell id="acpNCpp4_QS4X7OmRHOk-5" value="dashboard" style="text;html=1;align=center;verticalAlign=middle;resizable=0;points=[];autosize=1;strokeColor=none;fillColor=none;labelBackgroundColor=default;fontSize=14;" parent="1" vertex="1">
          <mxGeometry x="5.4999999999999964" y="374.87" width="90" height="30" as="geometry" />
        </mxCell>
        <mxCell id="NMzGeiKC0gR0xCybBi5c-9" value="" style="shape=requiredInterface;html=1;fontSize=14;align=center;fillColor=none;points=[];aspect=fixed;resizable=0;verticalAlign=bottom;labelPosition=center;verticalLabelPosition=top;flipH=1;rotation=0;" parent="1" vertex="1">
          <mxGeometry x="201.2" y="487.86999999999995" width="5" height="10" as="geometry" />
        </mxCell>
        <mxCell id="NMzGeiKC0gR0xCybBi5c-10" style="rounded=0;orthogonalLoop=1;jettySize=auto;html=1;exitX=0.087;exitY=0.509;exitDx=0;exitDy=0;entryX=1;entryY=0.5;entryDx=0;entryDy=0;endArrow=none;endFill=0;exitPerimeter=0;fontSize=14;" parent="1" source="wkrjl5S5RHV7B64wUPDd-1" target="NMzGeiKC0gR0xCybBi5c-5" edge="1">
          <mxGeometry relative="1" as="geometry">
            <mxPoint x="340.15000000000003" y="489.44999999999993" as="sourcePoint" />
          </mxGeometry>
        </mxCell>
        <mxCell id="MKqeY2xma5D0B7bhtNGr-4" style="edgeStyle=orthogonalEdgeStyle;rounded=0;orthogonalLoop=1;jettySize=auto;html=1;exitX=1;exitY=0.5;exitDx=0;exitDy=0;endArrow=none;endFill=0;fontSize=14;" parent="1" source="wkrjl5S5RHV7B64wUPDd-1" edge="1">
          <mxGeometry relative="1" as="geometry">
            <mxPoint x="420" y="420" as="targetPoint" />
            <mxPoint x="424" y="491.87" as="sourcePoint" />
          </mxGeometry>
        </mxCell>
        <mxCell id="wkrjl5S5RHV7B64wUPDd-1" value="Users access&lt;br style=&quot;font-size: 14px;&quot;&gt;manager" style="shape=module;align=center;spacingLeft=20;align=center;verticalAlign=top;whiteSpace=wrap;html=1;fontSize=14;" parent="1" vertex="1">
          <mxGeometry x="275" y="467.87" width="120" height="50" as="geometry" />
        </mxCell>
        <mxCell id="MKqeY2xma5D0B7bhtNGr-5" value="" style="ellipse;html=1;fontSize=14;" parent="1" vertex="1">
          <mxGeometry x="222" y="415.99999999999994" width="7.874" height="7.874" as="geometry" />
        </mxCell>
        <mxCell id="MKqeY2xma5D0B7bhtNGr-6" value="" style="shape=requiredInterface;html=1;fontSize=14;align=center;fillColor=none;points=[];aspect=fixed;resizable=0;verticalAlign=bottom;labelPosition=center;verticalLabelPosition=top;flipH=1;rotation=0;" parent="1" vertex="1">
          <mxGeometry x="219.94" y="415.00999999999993" width="5" height="10" as="geometry" />
        </mxCell>
        <mxCell id="MKqeY2xma5D0B7bhtNGr-8" style="rounded=0;orthogonalLoop=1;jettySize=auto;html=1;exitX=0.08;exitY=0.494;exitDx=0;exitDy=0;exitPerimeter=0;endArrow=none;endFill=0;fontSize=14;entryX=1;entryY=0.5;entryDx=0;entryDy=0;" parent="1" source="o3Z6A7jvwZWguGTXYTzA-10" target="MKqeY2xma5D0B7bhtNGr-5" edge="1">
          <mxGeometry relative="1" as="geometry">
            <mxPoint x="232" y="420" as="targetPoint" />
          </mxGeometry>
        </mxCell>
        <mxCell id="MKqeY2xma5D0B7bhtNGr-9" value="battle&lt;br style=&quot;font-size: 14px;&quot;&gt;interface" style="text;html=1;align=center;verticalAlign=middle;resizable=0;points=[];autosize=1;strokeColor=none;fillColor=none;fontSize=14;" parent="1" vertex="1">
          <mxGeometry x="189.37" y="423.81" width="80" height="50" as="geometry" />
        </mxCell>
        <mxCell id="MKqeY2xma5D0B7bhtNGr-10" value="tournament&lt;br style=&quot;font-size: 14px;&quot;&gt;interface" style="text;html=1;align=center;verticalAlign=middle;resizable=0;points=[];autosize=1;strokeColor=none;fillColor=none;fontSize=14;" parent="1" vertex="1">
          <mxGeometry x="177.44" y="350.87" width="90" height="50" as="geometry" />
        </mxCell>
        <mxCell id="MKqeY2xma5D0B7bhtNGr-11" value="" style="ellipse;html=1;fontSize=14;" parent="1" vertex="1">
          <mxGeometry x="221" y="345.98999999999995" width="7.874" height="7.874" as="geometry" />
        </mxCell>
        <mxCell id="MKqeY2xma5D0B7bhtNGr-12" value="" style="shape=requiredInterface;html=1;fontSize=14;align=center;fillColor=none;points=[];aspect=fixed;resizable=0;verticalAlign=bottom;labelPosition=center;verticalLabelPosition=top;flipH=1;rotation=0;" parent="1" vertex="1">
          <mxGeometry x="218.94" y="344.92999999999995" width="5" height="10" as="geometry" />
        </mxCell>
        <mxCell id="MKqeY2xma5D0B7bhtNGr-14" style="edgeStyle=orthogonalEdgeStyle;rounded=0;orthogonalLoop=1;jettySize=auto;html=1;entryX=1;entryY=0.5;entryDx=0;entryDy=0;endArrow=none;endFill=0;exitX=0.078;exitY=0.495;exitDx=0;exitDy=0;exitPerimeter=0;fontSize=14;" parent="1" source="o3Z6A7jvwZWguGTXYTzA-9" target="MKqeY2xma5D0B7bhtNGr-11" edge="1">
          <mxGeometry relative="1" as="geometry" />
        </mxCell>
        <mxCell id="MKqeY2xma5D0B7bhtNGr-16" value="" style="shape=requiredInterface;html=1;fontSize=14;align=center;fillColor=none;points=[];aspect=fixed;resizable=0;verticalAlign=bottom;labelPosition=center;verticalLabelPosition=top;flipH=1;rotation=-180;" parent="1" vertex="1">
          <mxGeometry x="51.99629629629635" y="413.86999999999995" width="5" height="10" as="geometry" />
        </mxCell>
        <mxCell id="MKqeY2xma5D0B7bhtNGr-18" style="rounded=0;orthogonalLoop=1;jettySize=auto;html=1;exitX=0.101;exitY=0.488;exitDx=0;exitDy=0;exitPerimeter=0;entryX=0.946;entryY=0.476;entryDx=0;entryDy=0;entryPerimeter=0;endArrow=none;endFill=0;fontSize=14;" parent="1" source="o3Z6A7jvwZWguGTXYTzA-7" target="MKqeY2xma5D0B7bhtNGr-16" edge="1">
          <mxGeometry relative="1" as="geometry" />
        </mxCell>
        <mxCell id="MKqeY2xma5D0B7bhtNGr-21" style="edgeStyle=orthogonalEdgeStyle;rounded=0;orthogonalLoop=1;jettySize=auto;html=1;exitX=0.75;exitY=0;exitDx=0;exitDy=0;entryX=0.957;entryY=0.482;entryDx=0;entryDy=0;entryPerimeter=0;endArrow=none;endFill=0;fontSize=14;" parent="1" source="o3Z6A7jvwZWguGTXYTzA-1" target="NMzGeiKC0gR0xCybBi5c-17" edge="1">
          <mxGeometry relative="1" as="geometry" />
        </mxCell>
        <mxCell id="MKqeY2xma5D0B7bhtNGr-27" value="" style="shape=requiredInterface;html=1;fontSize=14;align=center;fillColor=none;points=[];aspect=fixed;resizable=0;verticalAlign=bottom;labelPosition=center;verticalLabelPosition=top;flipH=1;rotation=0;" parent="1" vertex="1">
          <mxGeometry x="758.4962962962964" y="541.74" width="5" height="10" as="geometry" />
        </mxCell>
        <mxCell id="MKqeY2xma5D0B7bhtNGr-28" value="" style="shape=requiredInterface;html=1;fontSize=14;align=center;fillColor=none;points=[];aspect=fixed;resizable=0;verticalAlign=bottom;labelPosition=center;verticalLabelPosition=top;flipH=1;rotation=0;" parent="1" vertex="1">
          <mxGeometry x="760.4962962962964" y="570.87" width="5" height="10" as="geometry" />
        </mxCell>
        <mxCell id="MKqeY2xma5D0B7bhtNGr-29" style="rounded=0;orthogonalLoop=1;jettySize=auto;html=1;exitX=1.002;exitY=0.325;exitDx=0;exitDy=0;entryX=0.873;entryY=0.5;entryDx=0;entryDy=0;entryPerimeter=0;endArrow=none;endFill=0;fontSize=14;exitPerimeter=0;" parent="1" source="NMzGeiKC0gR0xCybBi5c-36" target="MKqeY2xma5D0B7bhtNGr-27" edge="1">
          <mxGeometry relative="1" as="geometry" />
        </mxCell>
        <mxCell id="MKqeY2xma5D0B7bhtNGr-30" style="rounded=0;orthogonalLoop=1;jettySize=auto;html=1;exitX=1;exitY=0.75;exitDx=0;exitDy=0;entryX=0.946;entryY=0.488;entryDx=0;entryDy=0;entryPerimeter=0;endArrow=none;endFill=0;fontSize=14;" parent="1" source="NMzGeiKC0gR0xCybBi5c-36" target="MKqeY2xma5D0B7bhtNGr-28" edge="1">
          <mxGeometry relative="1" as="geometry" />
        </mxCell>
        <mxCell id="3HSTyzku5FbDP2daEOvo-10" style="edgeStyle=orthogonalEdgeStyle;rounded=0;orthogonalLoop=1;jettySize=auto;html=1;exitX=1;exitY=0.5;exitDx=0;exitDy=0;endArrow=none;endFill=0;" edge="1" parent="1">
          <mxGeometry relative="1" as="geometry">
            <mxPoint x="420" y="350" as="targetPoint" />
            <mxPoint x="394.9999999999999" y="272.87000000000006" as="sourcePoint" />
          </mxGeometry>
        </mxCell>
        <mxCell id="3HSTyzku5FbDP2daEOvo-1" value="Link&lt;br style=&quot;font-size: 14px;&quot;&gt;manager" style="shape=module;align=center;spacingLeft=20;align=center;verticalAlign=top;whiteSpace=wrap;html=1;fontSize=14;" vertex="1" parent="1">
          <mxGeometry x="275" y="247.87" width="120" height="50" as="geometry" />
        </mxCell>
        <mxCell id="3HSTyzku5FbDP2daEOvo-5" style="rounded=0;orthogonalLoop=1;jettySize=auto;html=1;endArrow=none;endFill=0;exitX=0.083;exitY=0.482;exitDx=0;exitDy=0;exitPerimeter=0;fontSize=14;entryX=1;entryY=0.5;entryDx=0;entryDy=0;" edge="1" parent="1" source="3HSTyzku5FbDP2daEOvo-1" target="3HSTyzku5FbDP2daEOvo-7">
          <mxGeometry relative="1" as="geometry">
            <mxPoint x="294" y="360" as="sourcePoint" />
            <mxPoint x="240" y="290" as="targetPoint" />
          </mxGeometry>
        </mxCell>
        <mxCell id="3HSTyzku5FbDP2daEOvo-6" value="" style="shape=requiredInterface;html=1;fontSize=14;align=center;fillColor=none;points=[];aspect=fixed;resizable=0;verticalAlign=bottom;labelPosition=center;verticalLabelPosition=top;flipH=1;rotation=0;" vertex="1" parent="1">
          <mxGeometry x="226.87" y="266.86999999999995" width="5" height="10" as="geometry" />
        </mxCell>
        <mxCell id="3HSTyzku5FbDP2daEOvo-7" value="" style="ellipse;html=1;fontSize=14;" vertex="1" parent="1">
          <mxGeometry x="229.87" y="267.92999999999995" width="7.874" height="7.874" as="geometry" />
        </mxCell>
        <mxCell id="3HSTyzku5FbDP2daEOvo-8" style="edgeStyle=orthogonalEdgeStyle;rounded=0;orthogonalLoop=1;jettySize=auto;html=1;exitX=0.5;exitY=0;exitDx=0;exitDy=0;entryX=0.986;entryY=0.559;entryDx=0;entryDy=0;entryPerimeter=0;endArrow=none;endFill=0;" edge="1" parent="1" source="o3Z6A7jvwZWguGTXYTzA-7" target="3HSTyzku5FbDP2daEOvo-6">
          <mxGeometry relative="1" as="geometry" />
        </mxCell>
        <mxCell id="3HSTyzku5FbDP2daEOvo-9" value="link&lt;br&gt;interface" style="text;html=1;align=center;verticalAlign=middle;resizable=0;points=[];autosize=1;strokeColor=none;fillColor=none;fontSize=14;" vertex="1" parent="1">
          <mxGeometry x="189.37" y="269.86" width="80" height="50" as="geometry" />
        </mxCell>
      </root>
    </mxGraphModel>
  </diagram>
  <diagram id="KhOJNazvdYKZ0HbO9pvM" name="CS">
    <mxGraphModel dx="600" dy="328" grid="1" gridSize="10" guides="1" tooltips="1" connect="1" arrows="1" fold="1" page="1" pageScale="1" pageWidth="827" pageHeight="1169" math="0" shadow="0">
      <root>
        <mxCell id="0" />
        <mxCell id="1" parent="0" />
        <mxCell id="EK5WQ-zxS_qmQGytw0f1-1" value="Server" style="sketch=0;aspect=fixed;pointerEvents=1;shadow=0;dashed=0;html=1;strokeColor=none;labelPosition=center;verticalLabelPosition=bottom;verticalAlign=top;align=center;fillColor=#515151;shape=mxgraph.mscae.enterprise.server_generic;fontSize=14;" parent="1" vertex="1">
          <mxGeometry x="540" y="190" width="24" height="50" as="geometry" />
        </mxCell>
        <mxCell id="EK5WQ-zxS_qmQGytw0f1-4" value="Client" style="points=[[0.03,0.03,0],[0.5,0,0],[0.97,0.03,0],[1,0.4,0],[0.97,0.745,0],[0.5,1,0],[0.03,0.745,0],[0,0.4,0]];verticalLabelPosition=bottom;sketch=0;html=1;verticalAlign=top;aspect=fixed;align=center;pointerEvents=1;shape=mxgraph.cisco19.workstation;fillColor=#515151;strokeColor=none;fontSize=14;" parent="1" vertex="1">
          <mxGeometry x="280" y="200" width="50" height="40" as="geometry" />
        </mxCell>
        <mxCell id="EK5WQ-zxS_qmQGytw0f1-5" style="rounded=0;orthogonalLoop=1;jettySize=auto;html=1;" parent="1" edge="1">
          <mxGeometry relative="1" as="geometry">
            <mxPoint x="340" y="210" as="sourcePoint" />
            <mxPoint x="520" y="210" as="targetPoint" />
          </mxGeometry>
        </mxCell>
        <mxCell id="EK5WQ-zxS_qmQGytw0f1-8" value="Request" style="edgeLabel;html=1;align=center;verticalAlign=middle;resizable=0;points=[];" parent="EK5WQ-zxS_qmQGytw0f1-5" vertex="1" connectable="0">
          <mxGeometry x="-0.3074" y="1" relative="1" as="geometry">
            <mxPoint x="28" as="offset" />
          </mxGeometry>
        </mxCell>
        <mxCell id="EK5WQ-zxS_qmQGytw0f1-7" style="rounded=0;orthogonalLoop=1;jettySize=auto;html=1;endArrow=none;endFill=0;startArrow=classic;startFill=1;" parent="1" edge="1">
          <mxGeometry relative="1" as="geometry">
            <mxPoint x="340" y="229.78" as="sourcePoint" />
            <mxPoint x="520" y="229.78" as="targetPoint" />
          </mxGeometry>
        </mxCell>
        <mxCell id="EK5WQ-zxS_qmQGytw0f1-9" value="Response" style="edgeLabel;html=1;align=center;verticalAlign=middle;resizable=0;points=[];" parent="EK5WQ-zxS_qmQGytw0f1-7" vertex="1" connectable="0">
          <mxGeometry x="0.0877" y="-1" relative="1" as="geometry">
            <mxPoint x="-8" as="offset" />
          </mxGeometry>
        </mxCell>
      </root>
    </mxGraphModel>
  </diagram>
  <diagram id="lhctsqJCYhFxPBLniONF" name="MVC">
    <mxGraphModel dx="1050" dy="574" grid="1" gridSize="10" guides="1" tooltips="1" connect="1" arrows="1" fold="1" page="1" pageScale="1" pageWidth="827" pageHeight="1169" math="0" shadow="0">
      <root>
        <mxCell id="0" />
        <mxCell id="1" parent="0" />
        <mxCell id="hLN0Npzurz2oNY2t5WER-4" style="rounded=0;orthogonalLoop=1;jettySize=auto;html=1;exitX=0;exitY=0.5;exitDx=0;exitDy=0;" parent="1" source="hLN0Npzurz2oNY2t5WER-1" target="hLN0Npzurz2oNY2t5WER-2" edge="1">
          <mxGeometry relative="1" as="geometry" />
        </mxCell>
        <mxCell id="hLN0Npzurz2oNY2t5WER-10" value="Updates" style="edgeLabel;html=1;align=center;verticalAlign=middle;resizable=0;points=[];" parent="hLN0Npzurz2oNY2t5WER-4" vertex="1" connectable="0">
          <mxGeometry x="-0.0599" y="-1" relative="1" as="geometry">
            <mxPoint as="offset" />
          </mxGeometry>
        </mxCell>
        <mxCell id="hLN0Npzurz2oNY2t5WER-5" style="rounded=0;orthogonalLoop=1;jettySize=auto;html=1;exitX=1;exitY=0.5;exitDx=0;exitDy=0;entryX=0.5;entryY=0;entryDx=0;entryDy=0;endArrow=none;endFill=0;startArrow=classic;startFill=1;" parent="1" source="hLN0Npzurz2oNY2t5WER-1" target="hLN0Npzurz2oNY2t5WER-3" edge="1">
          <mxGeometry relative="1" as="geometry" />
        </mxCell>
        <mxCell id="hLN0Npzurz2oNY2t5WER-8" value="Manipulates" style="edgeLabel;html=1;align=center;verticalAlign=middle;resizable=0;points=[];" parent="hLN0Npzurz2oNY2t5WER-5" vertex="1" connectable="0">
          <mxGeometry x="-0.1131" relative="1" as="geometry">
            <mxPoint as="offset" />
          </mxGeometry>
        </mxCell>
        <mxCell id="hLN0Npzurz2oNY2t5WER-1" value="Model" style="rounded=0;whiteSpace=wrap;html=1;" parent="1" vertex="1">
          <mxGeometry x="320" y="190" width="120" height="60" as="geometry" />
        </mxCell>
        <mxCell id="hLN0Npzurz2oNY2t5WER-6" style="edgeStyle=orthogonalEdgeStyle;rounded=0;orthogonalLoop=1;jettySize=auto;html=1;exitX=1;exitY=0.25;exitDx=0;exitDy=0;entryX=0;entryY=0.25;entryDx=0;entryDy=0;" parent="1" source="hLN0Npzurz2oNY2t5WER-2" target="hLN0Npzurz2oNY2t5WER-3" edge="1">
          <mxGeometry relative="1" as="geometry" />
        </mxCell>
        <mxCell id="hLN0Npzurz2oNY2t5WER-11" value="Sends input from user" style="edgeLabel;html=1;align=center;verticalAlign=middle;resizable=0;points=[];" parent="hLN0Npzurz2oNY2t5WER-6" vertex="1" connectable="0">
          <mxGeometry x="-0.207" y="1" relative="1" as="geometry">
            <mxPoint x="29" as="offset" />
          </mxGeometry>
        </mxCell>
        <mxCell id="hLN0Npzurz2oNY2t5WER-2" value="View" style="rounded=0;whiteSpace=wrap;html=1;" parent="1" vertex="1">
          <mxGeometry x="140" y="370" width="120" height="60" as="geometry" />
        </mxCell>
        <mxCell id="hLN0Npzurz2oNY2t5WER-7" style="edgeStyle=orthogonalEdgeStyle;rounded=0;orthogonalLoop=1;jettySize=auto;html=1;exitX=0;exitY=0.75;exitDx=0;exitDy=0;entryX=1;entryY=0.75;entryDx=0;entryDy=0;" parent="1" source="hLN0Npzurz2oNY2t5WER-3" target="hLN0Npzurz2oNY2t5WER-2" edge="1">
          <mxGeometry relative="1" as="geometry" />
        </mxCell>
        <mxCell id="hLN0Npzurz2oNY2t5WER-12" value="Updates directly" style="edgeLabel;html=1;align=center;verticalAlign=middle;resizable=0;points=[];" parent="hLN0Npzurz2oNY2t5WER-7" vertex="1" connectable="0">
          <mxGeometry x="0.1233" y="2" relative="1" as="geometry">
            <mxPoint x="17" as="offset" />
          </mxGeometry>
        </mxCell>
        <mxCell id="hLN0Npzurz2oNY2t5WER-3" value="Controller" style="rounded=0;whiteSpace=wrap;html=1;" parent="1" vertex="1">
          <mxGeometry x="500" y="370" width="120" height="60" as="geometry" />
        </mxCell>
      </root>
    </mxGraphModel>
  </diagram>
  <diagram id="TzWxON6qmmAu3eUjzJzW" name="deployment">
    <mxGraphModel dx="1050" dy="574" grid="1" gridSize="10" guides="1" tooltips="1" connect="1" arrows="1" fold="1" page="1" pageScale="1" pageWidth="827" pageHeight="1169" math="0" shadow="0">
      <root>
        <mxCell id="0" />
        <mxCell id="1" parent="0" />
        <mxCell id="82b-k8jfVN1Lff1NLrML-4" value="" style="shape=cube;whiteSpace=wrap;html=1;boundedLbl=1;backgroundOutline=1;darkOpacity=0.05;darkOpacity2=0.1;fillColor=#dae8fc;strokeColor=#6c8ebf;size=10;" parent="1" vertex="1">
          <mxGeometry x="50" y="170" width="190" height="280" as="geometry" />
        </mxCell>
        <mxCell id="82b-k8jfVN1Lff1NLrML-5" value="" style="shape=cube;whiteSpace=wrap;html=1;boundedLbl=1;backgroundOutline=1;darkOpacity=0.05;darkOpacity2=0.1;fillColor=#d5e8d4;strokeColor=#82b366;size=10;" parent="1" vertex="1">
          <mxGeometry x="589" y="170" width="190" height="280" as="geometry" />
        </mxCell>
        <mxCell id="82b-k8jfVN1Lff1NLrML-6" value="" style="shape=cube;whiteSpace=wrap;html=1;boundedLbl=1;backgroundOutline=1;darkOpacity=0.05;darkOpacity2=0.1;fillColor=#f8cecc;strokeColor=#b85450;size=10;" parent="1" vertex="1">
          <mxGeometry x="320" y="170" width="190" height="280" as="geometry" />
        </mxCell>
        <mxCell id="EKJtJ-0-N855DBToq2P4-7" value="" style="shape=cube;whiteSpace=wrap;html=1;boundedLbl=1;backgroundOutline=1;darkOpacity=0.05;darkOpacity2=0.1;fillColor=#dae8fc;strokeColor=#6c8ebf;size=10;" parent="1" vertex="1">
          <mxGeometry x="70" y="250" width="160" height="190" as="geometry" />
        </mxCell>
        <mxCell id="EKJtJ-0-N855DBToq2P4-6" value="&amp;lt;&amp;lt;device&amp;gt;&amp;gt;" style="text;html=1;align=center;verticalAlign=middle;resizable=0;points=[];autosize=1;strokeColor=none;fillColor=none;" parent="1" vertex="1">
          <mxGeometry x="105" y="180" width="90" height="30" as="geometry" />
        </mxCell>
        <mxCell id="EKJtJ-0-N855DBToq2P4-11" value="" style="group" parent="1" vertex="1" connectable="0">
          <mxGeometry x="90" y="334" width="130" height="50" as="geometry" />
        </mxCell>
        <mxCell id="EKJtJ-0-N855DBToq2P4-2" value="" style="whiteSpace=wrap;html=1;align=center;" parent="EKJtJ-0-N855DBToq2P4-11" vertex="1">
          <mxGeometry width="130" height="50" as="geometry" />
        </mxCell>
        <mxCell id="EKJtJ-0-N855DBToq2P4-1" value="" style="shape=note;size=3;whiteSpace=wrap;html=1;" parent="EKJtJ-0-N855DBToq2P4-11" vertex="1">
          <mxGeometry x="114" y="7" width="10" height="12" as="geometry" />
        </mxCell>
        <mxCell id="EKJtJ-0-N855DBToq2P4-4" value="&amp;lt;&amp;lt;artifact&amp;gt;&amp;gt;" style="text;html=1;align=center;verticalAlign=middle;resizable=0;points=[];autosize=1;strokeColor=none;fillColor=none;" parent="EKJtJ-0-N855DBToq2P4-11" vertex="1">
          <mxGeometry x="20" width="90" height="30" as="geometry" />
        </mxCell>
        <mxCell id="EKJtJ-0-N855DBToq2P4-5" value="CKB web platform" style="text;html=1;align=center;verticalAlign=middle;resizable=0;points=[];autosize=1;strokeColor=none;fillColor=none;" parent="EKJtJ-0-N855DBToq2P4-11" vertex="1">
          <mxGeometry x="5" y="19" width="120" height="30" as="geometry" />
        </mxCell>
        <mxCell id="EKJtJ-0-N855DBToq2P4-12" value="&amp;lt;&amp;lt;web browser&amp;gt;&amp;gt;" style="text;html=1;align=center;verticalAlign=middle;resizable=0;points=[];autosize=1;strokeColor=none;fillColor=none;" parent="1" vertex="1">
          <mxGeometry x="95" y="260" width="120" height="30" as="geometry" />
        </mxCell>
        <mxCell id="EKJtJ-0-N855DBToq2P4-13" value="personal computer, &lt;br&gt;smartphone" style="text;html=1;align=center;verticalAlign=middle;resizable=0;points=[];autosize=1;strokeColor=none;fillColor=none;" parent="1" vertex="1">
          <mxGeometry x="85" y="205" width="130" height="40" as="geometry" />
        </mxCell>
        <mxCell id="EKJtJ-0-N855DBToq2P4-14" value="&amp;lt;&amp;lt;device&amp;gt;&amp;gt;" style="text;html=1;align=center;verticalAlign=middle;resizable=0;points=[];autosize=1;strokeColor=none;fillColor=none;" parent="1" vertex="1">
          <mxGeometry x="370" y="180" width="90" height="30" as="geometry" />
        </mxCell>
        <mxCell id="EKJtJ-0-N855DBToq2P4-15" value="CKB server" style="text;html=1;align=center;verticalAlign=middle;resizable=0;points=[];autosize=1;strokeColor=none;fillColor=none;" parent="1" vertex="1">
          <mxGeometry x="375" y="205" width="80" height="30" as="geometry" />
        </mxCell>
        <mxCell id="EKJtJ-0-N855DBToq2P4-16" value="" style="shape=cube;whiteSpace=wrap;html=1;boundedLbl=1;backgroundOutline=1;darkOpacity=0.05;darkOpacity2=0.1;fillColor=#f8cecc;strokeColor=#b85450;size=10;" parent="1" vertex="1">
          <mxGeometry x="343" y="250" width="160" height="190" as="geometry" />
        </mxCell>
        <mxCell id="bReSHCI7fVy8umuOZ0NM-1" value="" style="group" parent="1" vertex="1" connectable="0">
          <mxGeometry x="363" y="330" width="130" height="50" as="geometry" />
        </mxCell>
        <mxCell id="bReSHCI7fVy8umuOZ0NM-2" value="" style="whiteSpace=wrap;html=1;align=center;" parent="bReSHCI7fVy8umuOZ0NM-1" vertex="1">
          <mxGeometry width="130" height="50" as="geometry" />
        </mxCell>
        <mxCell id="bReSHCI7fVy8umuOZ0NM-3" value="" style="shape=note;size=3;whiteSpace=wrap;html=1;" parent="bReSHCI7fVy8umuOZ0NM-1" vertex="1">
          <mxGeometry x="114" y="7" width="10" height="12" as="geometry" />
        </mxCell>
        <mxCell id="bReSHCI7fVy8umuOZ0NM-4" value="&amp;lt;&amp;lt;executable&amp;gt;&amp;gt;" style="text;html=1;align=center;verticalAlign=middle;resizable=0;points=[];autosize=1;strokeColor=none;fillColor=none;" parent="bReSHCI7fVy8umuOZ0NM-1" vertex="1">
          <mxGeometry x="10" width="110" height="30" as="geometry" />
        </mxCell>
        <mxCell id="bReSHCI7fVy8umuOZ0NM-5" value="CKB server app" style="text;html=1;align=center;verticalAlign=middle;resizable=0;points=[];autosize=1;strokeColor=none;fillColor=none;" parent="bReSHCI7fVy8umuOZ0NM-1" vertex="1">
          <mxGeometry x="10" y="19" width="110" height="30" as="geometry" />
        </mxCell>
        <mxCell id="bReSHCI7fVy8umuOZ0NM-6" value="&amp;lt;&amp;lt;device&amp;gt;&amp;gt;" style="text;html=1;align=center;verticalAlign=middle;resizable=0;points=[];autosize=1;strokeColor=none;fillColor=none;" parent="1" vertex="1">
          <mxGeometry x="649" y="180" width="90" height="30" as="geometry" />
        </mxCell>
        <mxCell id="bReSHCI7fVy8umuOZ0NM-7" value="database server" style="text;html=1;align=center;verticalAlign=middle;resizable=0;points=[];autosize=1;strokeColor=none;fillColor=none;" parent="1" vertex="1">
          <mxGeometry x="639" y="205" width="110" height="30" as="geometry" />
        </mxCell>
        <mxCell id="bReSHCI7fVy8umuOZ0NM-8" value="" style="shape=cube;whiteSpace=wrap;html=1;boundedLbl=1;backgroundOutline=1;darkOpacity=0.05;darkOpacity2=0.1;fillColor=#d5e8d4;strokeColor=#82b366;size=10;" parent="1" vertex="1">
          <mxGeometry x="614" y="250" width="160" height="190" as="geometry" />
        </mxCell>
        <mxCell id="bReSHCI7fVy8umuOZ0NM-9" value="&amp;lt;&amp;lt;application server&amp;gt;&amp;gt;" style="text;html=1;align=center;verticalAlign=middle;resizable=0;points=[];autosize=1;strokeColor=none;fillColor=none;" parent="1" vertex="1">
          <mxGeometry x="354" y="260" width="150" height="30" as="geometry" />
        </mxCell>
        <mxCell id="bReSHCI7fVy8umuOZ0NM-10" value="&amp;lt;&amp;lt;RDBMS&amp;gt;&amp;gt;" style="text;html=1;align=center;verticalAlign=middle;resizable=0;points=[];autosize=1;strokeColor=none;fillColor=none;" parent="1" vertex="1">
          <mxGeometry x="654" y="260" width="90" height="30" as="geometry" />
        </mxCell>
        <mxCell id="bReSHCI7fVy8umuOZ0NM-11" value="" style="group" parent="1" vertex="1" connectable="0">
          <mxGeometry x="635" y="329" width="130" height="50" as="geometry" />
        </mxCell>
        <mxCell id="bReSHCI7fVy8umuOZ0NM-12" value="" style="whiteSpace=wrap;html=1;align=center;" parent="bReSHCI7fVy8umuOZ0NM-11" vertex="1">
          <mxGeometry width="130" height="50" as="geometry" />
        </mxCell>
        <mxCell id="bReSHCI7fVy8umuOZ0NM-13" value="" style="shape=note;size=3;whiteSpace=wrap;html=1;" parent="bReSHCI7fVy8umuOZ0NM-11" vertex="1">
          <mxGeometry x="114" y="7" width="10" height="12" as="geometry" />
        </mxCell>
        <mxCell id="bReSHCI7fVy8umuOZ0NM-14" value="&amp;lt;&amp;lt;document&amp;gt;&amp;gt;" style="text;html=1;align=center;verticalAlign=middle;resizable=0;points=[];autosize=1;strokeColor=none;fillColor=none;" parent="bReSHCI7fVy8umuOZ0NM-11" vertex="1">
          <mxGeometry x="15" width="100" height="30" as="geometry" />
        </mxCell>
        <mxCell id="bReSHCI7fVy8umuOZ0NM-15" value="DB tables" style="text;html=1;align=center;verticalAlign=middle;resizable=0;points=[];autosize=1;strokeColor=none;fillColor=none;" parent="bReSHCI7fVy8umuOZ0NM-11" vertex="1">
          <mxGeometry x="25" y="19" width="80" height="30" as="geometry" />
        </mxCell>
        <mxCell id="bReSHCI7fVy8umuOZ0NM-16" value="" style="endArrow=none;dashed=1;html=1;rounded=0;" parent="1" edge="1">
          <mxGeometry width="50" height="50" relative="1" as="geometry">
            <mxPoint x="279" y="480" as="sourcePoint" />
            <mxPoint x="279" y="90" as="targetPoint" />
          </mxGeometry>
        </mxCell>
        <mxCell id="bReSHCI7fVy8umuOZ0NM-17" value="" style="endArrow=none;dashed=1;html=1;rounded=0;" parent="1" edge="1">
          <mxGeometry width="50" height="50" relative="1" as="geometry">
            <mxPoint x="547" y="470" as="sourcePoint" />
            <mxPoint x="547" y="80" as="targetPoint" />
          </mxGeometry>
        </mxCell>
        <mxCell id="bReSHCI7fVy8umuOZ0NM-18" value="Tier 1: presentation layer" style="text;html=1;align=center;verticalAlign=middle;resizable=0;points=[];autosize=1;strokeColor=none;fillColor=none;" parent="1" vertex="1">
          <mxGeometry x="70" y="120" width="160" height="30" as="geometry" />
        </mxCell>
        <mxCell id="bReSHCI7fVy8umuOZ0NM-19" value="Tier 2: application layer" style="text;html=1;align=center;verticalAlign=middle;resizable=0;points=[];autosize=1;strokeColor=none;fillColor=none;" parent="1" vertex="1">
          <mxGeometry x="339" y="120" width="150" height="30" as="geometry" />
        </mxCell>
        <mxCell id="bReSHCI7fVy8umuOZ0NM-20" value="Tier 3: data layer" style="text;html=1;align=center;verticalAlign=middle;resizable=0;points=[];autosize=1;strokeColor=none;fillColor=none;" parent="1" vertex="1">
          <mxGeometry x="629" y="120" width="110" height="30" as="geometry" />
        </mxCell>
        <mxCell id="cVdCl27jKUWsU-xCgfSl-1" style="rounded=0;orthogonalLoop=1;jettySize=auto;html=1;endArrow=none;endFill=0;exitX=0.997;exitY=0.501;exitDx=0;exitDy=0;exitPerimeter=0;" parent="1" source="82b-k8jfVN1Lff1NLrML-4" edge="1">
          <mxGeometry relative="1" as="geometry">
            <mxPoint x="250" y="310" as="sourcePoint" />
            <mxPoint x="320" y="310" as="targetPoint" />
          </mxGeometry>
        </mxCell>
        <mxCell id="cVdCl27jKUWsU-xCgfSl-3" value="+HTTPS" style="edgeLabel;html=1;align=center;verticalAlign=middle;resizable=0;points=[];" parent="cVdCl27jKUWsU-xCgfSl-1" vertex="1" connectable="0">
          <mxGeometry x="0.4452" relative="1" as="geometry">
            <mxPoint x="-18" as="offset" />
          </mxGeometry>
        </mxCell>
        <mxCell id="cVdCl27jKUWsU-xCgfSl-2" style="rounded=0;orthogonalLoop=1;jettySize=auto;html=1;exitX=0;exitY=0;exitDx=190;exitDy=145;exitPerimeter=0;entryX=0.002;entryY=0.502;entryDx=0;entryDy=0;entryPerimeter=0;endArrow=none;endFill=0;" parent="1" target="82b-k8jfVN1Lff1NLrML-5" edge="1">
          <mxGeometry relative="1" as="geometry">
            <mxPoint x="510" y="311" as="sourcePoint" />
            <mxPoint x="590.71" y="312.44000000000005" as="targetPoint" />
          </mxGeometry>
        </mxCell>
        <mxCell id="cVdCl27jKUWsU-xCgfSl-4" value="+ DB driver" style="edgeLabel;html=1;align=center;verticalAlign=middle;resizable=0;points=[];" parent="cVdCl27jKUWsU-xCgfSl-2" vertex="1" connectable="0">
          <mxGeometry x="-0.4048" y="1" relative="1" as="geometry">
            <mxPoint x="16" as="offset" />
          </mxGeometry>
        </mxCell>
      </root>
    </mxGraphModel>
  </diagram>
</mxfile>
